<?xml version="1.0" encoding="UTF-8"?>
<svg xmlns="http://www.w3.org/2000/svg" xmlns:xlink="http://www.w3.org/1999/xlink" width="100pt" height="100pt" viewBox="0 0 100 100" version="1.1">
<defs>
<linearGradient id="linear0" gradientUnits="userSpaceOnUse" x1="51.780437" y1="7.257576" x2="51.780437" y2="31.112288" gradientTransform="matrix(1.708794,0,0,2.271696,-36.661394,8.51299)">
<stop offset="0" style="stop-color:rgb(100%,100%,100%);stop-opacity:1;"/>
<stop offset="1" style="stop-color:rgb(90.196078%,90.196078%,90.196078%);stop-opacity:1;"/>
</linearGradient>
<linearGradient id="linear1" gradientUnits="userSpaceOnUse" x1="12" y1="1.989523" x2="12" y2="21" gradientTransform="matrix(1,0,0,1,0,-2)">
<stop offset="0" style="stop-color:rgb(100%,100%,100%);stop-opacity:1;"/>
<stop offset="1" style="stop-color:rgb(90.196078%,90.196078%,90.196078%);stop-opacity:1;"/>
</linearGradient>
</defs>
<g id="surface1">
<path style=" stroke:none;fill-rule:nonzero;fill:rgb(0%,0%,0%);fill-opacity:0.501961;" d="M 39.792969 29.167969 L 60.625 29.167969 C 61.777344 29.167969 62.707031 30.097656 62.707031 31.25 L 62.707031 81.25 C 62.707031 82.402344 61.777344 83.332031 60.625 83.332031 L 39.792969 83.332031 C 38.640625 83.332031 37.707031 82.402344 37.707031 81.25 L 37.707031 31.25 C 37.707031 30.097656 38.640625 29.167969 39.792969 29.167969 Z M 39.792969 29.167969 "/>
<path style="fill:none;stroke-width:0.5;stroke-linecap:round;stroke-linejoin:miter;stroke:rgb(100%,100%,100%);stroke-opacity:0.301961;stroke-miterlimit:4;" d="M -17.5 8.25 L -3.500312 8.25 C -3.361562 8.25 -3.25 8.361562 -3.25 8.500312 L -3.25 15.499688 C -3.25 15.638438 -3.361562 15.75 -3.500312 15.75 L -17.5 15.75 C -17.637812 15.75 -17.750312 15.638438 -17.750312 15.499688 L -17.750312 8.500312 C -17.750312 8.361562 -17.637812 8.25 -17.5 8.25 Z M -17.5 8.25 " transform="matrix(0,-4.166667,4.166667,0,0,8.333333)"/>
<path style="fill:none;stroke-width:1;stroke-linecap:round;stroke-linejoin:miter;stroke:rgb(0%,0%,0%);stroke-opacity:0.501961;stroke-miterlimit:4;" d="M 7.5 18.500312 L 7.5 4.499687 C 7.5 3.945625 7.94625 3.500312 8.500312 3.500312 L 15.499688 3.500312 C 16.05375 3.500312 16.5 3.945625 16.5 4.499687 L 16.5 18.500312 C 16.5 19.054375 16.05375 19.499688 15.499688 19.499688 L 8.500312 19.499688 C 7.94625 19.499688 7.5 19.054375 7.5 18.500312 Z M 10.502812 3.38125 C 10.50375 3.053125 10.50375 2.725937 10.504687 2.397812 C 10.545937 1.799687 11.154375 1.420937 11.716875 1.499687 C 12.250312 1.523125 12.894375 1.375938 13.272187 1.863437 C 13.622813 2.30125 13.463437 2.884375 13.5 3.4 " transform="matrix(4.166667,0,0,4.166667,0,8.333333)"/>
<path style=" stroke:none;fill-rule:nonzero;fill:url(#linear0);" d="M 37.707031 25 C 46.042969 25 54.375 25 62.707031 25 C 62.707031 43.054688 62.707031 61.109375 62.707031 79.167969 C 54.375 79.167969 46.042969 79.167969 37.707031 79.167969 C 37.707031 61.109375 37.707031 43.054688 37.707031 25 Z M 37.707031 25 "/>
<path style="fill:none;stroke-width:1;stroke-linecap:round;stroke-linejoin:miter;stroke:url(#linear1);stroke-miterlimit:4;" d="M 7.5 17.5 L 7.5 3.500312 C 7.5 2.94625 7.94625 2.5 8.500312 2.5 L 15.499688 2.5 C 16.05375 2.5 16.5 2.94625 16.5 3.500312 L 16.5 17.5 C 16.5 18.054063 16.05375 18.500312 15.499688 18.500312 L 8.500312 18.500312 C 7.94625 18.500312 7.5 18.054063 7.5 17.5 Z M 10.502812 2.381875 C 10.50375 2.05375 10.50375 1.725625 10.504687 1.3975 C 10.545937 0.799375 11.154375 0.420625 11.716875 0.500312 C 12.250312 0.52375 12.894375 0.375625 13.272187 0.863125 C 13.622813 1.301875 13.463437 1.884062 13.5 2.400625 " transform="matrix(4.166667,0,0,4.166667,0,8.333333)"/>
</g>
</svg>
