<?xml version="1.0" encoding="UTF-8"?>
<svg xmlns="http://www.w3.org/2000/svg" xmlns:xlink="http://www.w3.org/1999/xlink" width="100pt" height="100pt" viewBox="0 0 100 100" version="1.1">
<defs>
<linearGradient id="linear0" gradientUnits="userSpaceOnUse" x1="51.780437" y1="7.257576" x2="51.780437" y2="31.112288" gradientTransform="matrix(1.708794,0,0,2.271696,-36.661396,8.512989)">
<stop offset="0" style="stop-color:rgb(100%,100%,100%);stop-opacity:1;"/>
<stop offset="1" style="stop-color:rgb(90.196078%,90.196078%,90.196078%);stop-opacity:1;"/>
</linearGradient>
<linearGradient id="linear1" gradientUnits="userSpaceOnUse" x1="12" y1="1.989523" x2="12" y2="21" gradientTransform="matrix(1,0,0,1,0,-8)">
<stop offset="0" style="stop-color:rgb(100%,100%,100%);stop-opacity:1;"/>
<stop offset="1" style="stop-color:rgb(90.196078%,90.196078%,90.196078%);stop-opacity:1;"/>
</linearGradient>
</defs>
<g id="surface1">
<path style=" stroke:none;fill-rule:nonzero;fill:rgb(0%,0%,0%);fill-opacity:0.501961;" d="M 37.761719 29.167969 C 37.761719 37.5 37.761719 45.832031 37.761719 54.167969 L 62.761719 29.167969 C 54.425781 29.167969 46.09375 29.167969 37.761719 29.167969 Z M 62.761719 29.167969 L 54.425781 50 L 62.761719 50 C 62.761719 43.054688 62.761719 36.109375 62.761719 29.167969 Z M 62.761719 54.816406 L 37.761719 83.332031 C 46.09375 83.332031 54.425781 83.332031 62.761719 83.332031 C 62.761719 73.828125 62.761719 64.324219 62.761719 54.816406 Z M 37.761719 83.332031 L 50.261719 58.332031 L 37.761719 58.332031 C 37.761719 66.667969 37.761719 75 37.761719 83.332031 Z M 37.761719 83.332031 "/>
<path style="fill:none;stroke-width:1;stroke-linecap:round;stroke-linejoin:miter;stroke:rgb(0%,0%,0%);stroke-opacity:0.501961;stroke-miterlimit:4;" d="M 7.5 12.500312 L 7.5 -1.500313 C 7.5 -2.054375 7.94625 -2.499688 8.500312 -2.499688 L 15.499688 -2.499688 C 16.05375 -2.499688 16.5 -2.054375 16.5 -1.500313 L 16.5 12.500312 C 16.5 13.054375 16.05375 13.499688 15.499688 13.499688 L 8.500312 13.499688 C 7.94625 13.499688 7.5 13.054375 7.5 12.500312 Z M 10.502812 -2.61875 C 10.50375 -2.946875 10.50375 -3.274063 10.504687 -3.602188 C 10.545937 -4.200313 11.154375 -4.579063 11.716875 -4.500312 C 12.250312 -4.476875 12.894375 -4.624062 13.272187 -4.136563 C 13.622813 -3.69875 13.463437 -3.115625 13.5 -2.6 " transform="matrix(4.166667,0,0,4.166667,0,33.333333)"/>
<path style="fill:none;stroke-width:0.5;stroke-linecap:round;stroke-linejoin:miter;stroke:rgb(100%,100%,100%);stroke-opacity:0.301961;stroke-miterlimit:4;" d="M -11.5 8.25 L 2.499688 8.25 C 2.638438 8.25 2.75 8.361562 2.75 8.500312 L 2.75 15.499688 C 2.75 15.638438 2.638438 15.75 2.499688 15.75 L -11.5 15.75 C -11.637812 15.75 -11.750312 15.638438 -11.750312 15.499688 L -11.750312 8.500312 C -11.750312 8.361562 -11.637812 8.25 -11.5 8.25 Z M -11.5 8.25 " transform="matrix(0,-4.166667,4.166667,0,0,33.333333)"/>
<path style=" stroke:none;fill-rule:nonzero;fill:url(#linear0);" d="M 37.761719 25 C 37.761719 33.332031 37.761719 41.667969 37.761719 50 L 62.761719 25 C 54.425781 25 46.09375 25 37.761719 25 Z M 62.761719 25 L 54.425781 45.832031 L 62.761719 45.832031 C 62.761719 38.890625 62.761719 31.945312 62.761719 25 Z M 62.761719 50.652344 L 37.761719 79.167969 C 46.09375 79.167969 54.425781 79.167969 62.761719 79.167969 C 62.761719 69.660156 62.761719 60.15625 62.761719 50.652344 Z M 37.761719 79.167969 L 50.261719 54.167969 L 37.761719 54.167969 C 37.761719 62.5 37.761719 70.832031 37.761719 79.167969 Z M 37.761719 79.167969 "/>
<path style="fill:none;stroke-width:1;stroke-linecap:round;stroke-linejoin:miter;stroke:url(#linear1);stroke-miterlimit:4;" d="M 7.5 11.5 L 7.5 -2.499688 C 7.5 -3.05375 7.94625 -3.5 8.500312 -3.5 L 15.499688 -3.5 C 16.05375 -3.5 16.5 -3.05375 16.5 -2.499688 L 16.5 11.5 C 16.5 12.054063 16.05375 12.500312 15.499688 12.500312 L 8.500312 12.500312 C 7.94625 12.500312 7.5 12.054063 7.5 11.5 Z M 10.502812 -3.618125 C 10.50375 -3.94625 10.50375 -4.274375 10.504687 -4.6025 C 10.545937 -5.200625 11.154375 -5.579375 11.716875 -5.499688 C 12.250312 -5.47625 12.894375 -5.624375 13.272187 -5.136875 C 13.622813 -4.698125 13.463437 -4.115938 13.5 -3.599375 " transform="matrix(4.166667,0,0,4.166667,0,33.333333)"/>
</g>
</svg>
