<?xml version="1.0" encoding="UTF-8"?>
<svg xmlns="http://www.w3.org/2000/svg" xmlns:xlink="http://www.w3.org/1999/xlink" width="100pt" height="100pt" viewBox="0 0 100 100" version="1.1">
<defs>
<linearGradient id="linear0" gradientUnits="userSpaceOnUse" x1="109.47756" y1="12.785161" x2="109.47756" y2="32.96188" gradientTransform="matrix(1.973794,0,0,2.703386,-159.839195,-11.83595)">
<stop offset="0" style="stop-color:rgb(35.294118%,78.823529%,100%);stop-opacity:1;"/>
<stop offset="0.704952" style="stop-color:rgb(25.098039%,54.117647%,87.058824%);stop-opacity:1;"/>
<stop offset="1" style="stop-color:rgb(12.941176%,41.960784%,74.117647%);stop-opacity:1;"/>
</linearGradient>
<linearGradient id="linear1" gradientUnits="userSpaceOnUse" x1="102.28843" y1="32.96233" x2="102.28843" y2="12.785161" gradientTransform="matrix(2.193104,0,0,3.15395,-183.154664,-22.141941)">
<stop offset="0" style="stop-color:rgb(35.294118%,78.823529%,100%);stop-opacity:0.2;"/>
<stop offset="0.704952" style="stop-color:rgb(25.098039%,54.117647%,87.058824%);stop-opacity:0.2;"/>
<stop offset="1" style="stop-color:rgb(12.941176%,41.960784%,74.117647%);stop-opacity:0.2;"/>
</linearGradient>
</defs>
<g id="surface1">
<path style=" stroke:none;fill-rule:nonzero;fill:rgb(0%,0%,0%);fill-opacity:0.501961;" d="M 13.636719 27.273438 C 11.117188 27.273438 9.089844 29.300781 9.089844 31.816406 L 9.089844 77.273438 C 9.089844 79.789062 11.117188 81.816406 13.636719 81.816406 L 86.363281 81.816406 C 88.882812 81.816406 90.910156 79.789062 90.910156 77.273438 L 90.910156 31.816406 C 90.910156 29.300781 88.882812 27.273438 86.363281 27.273438 Z M 17.472656 32.527344 L 48.578125 63.636719 L 51.277344 63.636719 L 82.527344 32.527344 L 85.652344 35.652344 L 67.046875 54.546875 L 81.109375 68.890625 L 77.984375 72.015625 L 63.636719 57.671875 L 53.265625 68.183594 L 46.734375 68.183594 L 36.363281 57.671875 L 22.015625 72.160156 L 18.890625 68.890625 L 33.097656 54.546875 L 14.347656 35.652344 Z M 17.472656 32.527344 "/>
<path style=" stroke:none;fill-rule:nonzero;fill:url(#linear0);" d="M 13.636719 22.726562 C 11.117188 22.726562 9.089844 24.753906 9.089844 27.273438 L 9.089844 72.726562 C 9.089844 75.246094 11.117188 77.273438 13.636719 77.273438 L 86.363281 77.273438 C 88.882812 77.273438 90.910156 75.246094 90.910156 72.726562 L 90.910156 27.273438 C 90.910156 24.753906 88.882812 22.726562 86.363281 22.726562 Z M 17.472656 27.984375 L 48.578125 59.089844 L 51.277344 59.089844 L 82.527344 27.984375 L 85.652344 31.109375 L 67.046875 50 L 81.109375 64.347656 L 77.984375 67.472656 L 63.636719 53.125 L 53.265625 63.636719 L 46.734375 63.636719 L 36.363281 53.125 L 22.015625 67.613281 L 18.890625 64.347656 L 33.097656 50 L 14.347656 31.109375 Z M 17.472656 27.984375 "/>
<path style=" stroke:none;fill-rule:nonzero;fill:url(#linear1);" d="M 13.636719 18.183594 C 8.601562 18.183594 4.546875 22.238281 4.546875 27.273438 L 4.546875 72.726562 C 4.546875 77.761719 8.601562 81.816406 13.636719 81.816406 L 86.363281 81.816406 C 91.398438 81.816406 95.453125 77.761719 95.453125 72.726562 L 95.453125 27.273438 C 95.453125 22.238281 91.398438 18.183594 86.363281 18.183594 Z M 17.472656 27.984375 L 48.578125 59.089844 L 51.277344 59.089844 L 82.527344 27.984375 L 85.652344 31.109375 L 67.046875 50 L 81.109375 64.347656 L 77.984375 67.472656 L 63.636719 53.125 L 53.265625 63.636719 L 46.734375 63.636719 L 36.363281 53.125 L 22.015625 67.613281 L 18.890625 64.347656 L 33.097656 50 L 14.347656 31.109375 Z M 17.472656 27.984375 "/>
</g>
</svg>
