<?xml version="1.0" encoding="UTF-8"?>
<svg xmlns="http://www.w3.org/2000/svg" xmlns:xlink="http://www.w3.org/1999/xlink" width="100pt" height="100pt" viewBox="0 0 100 100" version="1.1">
<defs>
<linearGradient id="linear0" gradientUnits="userSpaceOnUse" x1="15" y1="8" x2="15" y2="20" gradientTransform="matrix(4.545455,0,0,4.545455,0,0)">
<stop offset="0" style="stop-color:rgb(100%,100%,100%);stop-opacity:1;"/>
<stop offset="1" style="stop-color:rgb(90.196078%,90.196078%,90.196078%);stop-opacity:1;"/>
</linearGradient>
<linearGradient id="linear1" gradientUnits="userSpaceOnUse" x1="9.170124" y1="3" x2="9.311203" y2="15" gradientTransform="matrix(4.545455,0,0,4.545455,0,0)">
<stop offset="0" style="stop-color:rgb(100%,100%,100%);stop-opacity:1;"/>
<stop offset="1" style="stop-color:rgb(90.196078%,90.196078%,90.196078%);stop-opacity:1;"/>
</linearGradient>
</defs>
<g id="surface1">
<path style=" stroke:none;fill-rule:nonzero;fill:rgb(0%,0%,0%);fill-opacity:0.501961;" d="M 31.816406 18.183594 L 9.089844 40.910156 L 22.726562 40.910156 L 22.726562 72.726562 L 40.910156 72.726562 L 40.910156 40.910156 L 54.546875 40.910156 Z M 59.089844 40.910156 L 59.089844 72.726562 L 45.453125 72.726562 L 68.183594 95.453125 L 90.910156 72.726562 L 77.273438 72.726562 L 77.273438 40.910156 Z M 59.089844 40.910156 "/>
<path style=" stroke:none;fill-rule:nonzero;fill:url(#linear0);" d="M 90.910156 68.183594 L 68.183594 90.910156 L 45.453125 68.183594 L 59.089844 68.183594 L 59.089844 36.363281 L 77.273438 36.363281 L 77.273438 68.183594 Z M 90.910156 68.183594 "/>
<path style=" stroke:none;fill-rule:nonzero;fill:url(#linear1);" d="M 54.546875 36.363281 L 31.816406 13.636719 L 9.089844 36.363281 L 22.726562 36.363281 L 22.726562 68.183594 L 40.910156 68.183594 L 40.910156 36.363281 Z M 54.546875 36.363281 "/>
</g>
</svg>
