<?xml version="1.0" encoding="UTF-8"?>
<svg xmlns="http://www.w3.org/2000/svg" xmlns:xlink="http://www.w3.org/1999/xlink" width="100pt" height="100pt" viewBox="0 0 100 100" version="1.1">
<defs>
<filter id="alpha" filterUnits="objectBoundingBox" x="0%" y="0%" width="100%" height="100%">
  <feColorMatrix type="matrix" in="SourceGraphic" values="0 0 0 0 1 0 0 0 0 1 0 0 0 0 1 0 0 0 1 0"/>
</filter>
<mask id="mask0">
  <g filter="url(#alpha)">
<rect x="0" y="0" width="100" height="100" style="fill:rgb(0%,0%,0%);fill-opacity:0.4;stroke:none;"/>
  </g>
</mask>
<linearGradient id="linear0" gradientUnits="userSpaceOnUse" x1="16.409639" y1="20.910841" x2="16.409639" y2="2.951807" gradientTransform="matrix(4.545455,0,0,4.545455,-4.546016,-4.545455)">
<stop offset="0" style="stop-color:rgb(100%,100%,100%);stop-opacity:1;"/>
<stop offset="1" style="stop-color:rgb(90.196078%,90.196078%,90.196078%);stop-opacity:1;"/>
</linearGradient>
<linearGradient id="linear1" gradientUnits="userSpaceOnUse" x1="63.49427" y1="27.243343" x2="63.397884" y2="9.315633" gradientTransform="matrix(1,0,0,1,-52.096803,-7.363826)">
<stop offset="0" style="stop-color:rgb(100%,100%,100%);stop-opacity:1;"/>
<stop offset="1" style="stop-color:rgb(90.196078%,90.196078%,90.196078%);stop-opacity:1;"/>
</linearGradient>
<clipPath id="clip1">
  <rect width="100" height="100"/>
</clipPath>
<g id="surface6" clip-path="url(#clip1)">
<path style="fill:none;stroke-width:1.623948;stroke-linecap:butt;stroke-linejoin:miter;stroke:rgb(0%,0%,0%);stroke-opacity:0.501961;stroke-miterlimit:4;" d="M 8.04375 15.541797 C 8.04375 15.541797 8.605781 14.688437 10.916641 14.662656 C 13.2825 14.635156 14.120391 15.705078 14.120391 15.705078 M 5.278281 12.564062 C 5.278281 12.564062 7.196406 10.602969 10.981953 10.678594 C 14.7675 10.753359 16.685625 12.656875 16.685625 12.656875 M 2.436328 9.563984 C 2.436328 9.563984 5.026484 6.570781 10.981953 6.570781 C 16.937422 6.570781 19.563672 9.549375 19.563672 9.549375 " transform="matrix(4.545455,0,0,4.545455,0,0)"/>
<path style=" stroke:none;fill-rule:evenodd;fill:rgb(0%,0%,0%);fill-opacity:0.501961;" d="M 58.960938 82.832031 C 58.566406 83.199219 49.882812 93.183594 49.882812 93.183594 C 49.882812 93.183594 41.285156 83.117188 40.960938 82.832031 C 41.539062 82.363281 43.890625 80.519531 49.902344 80.546875 C 55.816406 80.574219 58.511719 82.378906 58.960938 82.832031 Z M 58.960938 82.832031 "/>
<path style=" stroke:none;fill-rule:evenodd;fill:url(#linear0);" d="M 59.757812 75.949219 C 59.328125 76.320312 49.875 86.363281 49.875 86.363281 C 49.875 86.363281 40.507812 76.234375 40.15625 75.949219 C 40.785156 75.476562 43.347656 73.625 49.894531 73.648438 C 56.335938 73.675781 59.265625 75.492188 59.757812 75.949219 Z M 59.757812 75.949219 "/>
<path style="fill:none;stroke-width:1.7;stroke-linecap:butt;stroke-linejoin:miter;stroke:url(#linear1);stroke-miterlimit:4;" d="M 6.771016 14.449531 C 6.771016 14.449531 7.789375 13.15875 10.909766 13.125234 C 13.991484 13.093437 15.170547 14.449531 15.170547 14.449531 M 4.05625 11.452891 C 4.05625 11.452891 6.291484 9.030312 10.980234 9.11625 C 15.708516 9.203047 17.904219 11.491562 17.904219 11.491562 M 1.198828 8.414141 C 1.198828 8.414141 4.302891 4.982656 10.980234 4.982656 C 17.625781 4.982656 20.801172 8.419297 20.801172 8.419297 " transform="matrix(4.545455,0,0,4.545455,0,0)"/>
</g>
</defs>
<g id="surface1">
<use xlink:href="#surface6" mask="url(#mask0)"/>
</g>
</svg>
