<?xml version="1.0" encoding="UTF-8"?>
<svg xmlns="http://www.w3.org/2000/svg" xmlns:xlink="http://www.w3.org/1999/xlink" width="100pt" height="100pt" viewBox="0 0 100 100" version="1.1">
<defs>
<radialGradient id="radial0" gradientUnits="userSpaceOnUse" cx="62.625" cy="4.625" fx="62.625" fy="4.625" r="10.625" gradientTransform="matrix(4.705882,0,0,2.001581,-244.705877,69.481243)">
<stop offset="0" style="stop-color:rgb(0%,0%,0%);stop-opacity:0.560784;"/>
<stop offset="1" style="stop-color:rgb(0%,0%,0%);stop-opacity:0;"/>
</radialGradient>
<linearGradient id="linear0" gradientUnits="userSpaceOnUse" x1="15.372947" y1="5.047162" x2="15.372947" y2="22.599676" gradientTransform="matrix(0.487398,0,0,0.478159,-0.504943,-0.298101)">
<stop offset="0" style="stop-color:rgb(69.019608%,80%,90.196078%);stop-opacity:1;"/>
<stop offset="1" style="stop-color:rgb(51.372549%,67.45098%,83.529412%);stop-opacity:1;"/>
</linearGradient>
<linearGradient id="linear1" gradientUnits="userSpaceOnUse" x1="31.226292" y1="34.600941" x2="34.96563" y2="26.842505" gradientTransform="matrix(0.510703,0,0,0.501023,-0.651003,-1.748381)">
<stop offset="0" style="stop-color:rgb(51.372549%,67.45098%,83.529412%);stop-opacity:1;"/>
<stop offset="1" style="stop-color:rgb(51.372549%,67.45098%,83.529412%);stop-opacity:0;"/>
</linearGradient>
<linearGradient id="linear2" gradientUnits="userSpaceOnUse" x1="33.686768" y1="35.773647" x2="37.039948" y2="29.856804" gradientTransform="matrix(0.510703,0,0,0.501023,-0.651003,-1.748381)">
<stop offset="0" style="stop-color:rgb(32.54902%,55.686275%,77.647059%);stop-opacity:1;"/>
<stop offset="1" style="stop-color:rgb(24.705882%,51.764706%,77.254902%);stop-opacity:0;"/>
</linearGradient>
<linearGradient id="linear3" gradientUnits="userSpaceOnUse" x1="21.628975" y1="2.11021" x2="22.245434" y2="43.366352" gradientTransform="matrix(0.487398,0,0,0.478159,-0.504943,-0.298101)">
<stop offset="0" style="stop-color:rgb(100%,100%,100%);stop-opacity:0.4;"/>
<stop offset="1" style="stop-color:rgb(100%,100%,100%);stop-opacity:0;"/>
</linearGradient>
<linearGradient id="linear4" gradientUnits="userSpaceOnUse" x1="33.386703" y1="41.887085" x2="39.686337" y2="28.50532" gradientTransform="matrix(0.487398,0,0,0.478159,-0.504943,-0.298101)">
<stop offset="0" style="stop-color:rgb(100%,100%,100%);stop-opacity:0;"/>
<stop offset="0.574241" style="stop-color:rgb(100%,100%,100%);stop-opacity:0.145098;"/>
<stop offset="1" style="stop-color:rgb(100%,100%,100%);stop-opacity:0;"/>
</linearGradient>
</defs>
<g id="surface1">
<path style=" stroke:none;fill-rule:evenodd;fill:url(#radial0);" d="M 100 78.738281 C 100 90.484375 77.613281 100.003906 50 100.003906 C 22.386719 100.003906 0 90.484375 0 78.738281 C 0 66.992188 22.386719 57.472656 50 57.472656 C 77.613281 57.472656 100 66.992188 100 78.738281 Z M 100 78.738281 "/>
<path style="fill-rule:nonzero;fill:url(#linear0);stroke-width:1.004748;stroke-linecap:butt;stroke-linejoin:round;stroke:rgb(32.54902%,55.686275%,77.647059%);stroke-opacity:1;stroke-miterlimit:4;" d="M 11.599844 15.00125 C 9.099922 14.974609 6.999609 12.835625 6.999609 10.394141 C 6.999609 8.292969 9.358594 6.001016 11.645391 6.001016 C 12.852812 6.001016 14.022422 6.272578 14.889531 7.093281 L 12.499609 9.50125 L 21.499844 9.50125 C 21.499844 9.50125 21.499844 0.501016 21.499844 0.501016 L 18.664766 3.316328 C 16.770703 1.491016 14.581875 0.534531 11.786328 0.504453 C 6.100703 0.442578 1.565781 4.986953 1.503047 10.540234 C 1.440312 16.093516 5.914219 20.437656 11.599844 20.498672 " transform="matrix(4.545455,0,0,4.545455,0,0)"/>
<path style="fill-rule:nonzero;fill:url(#linear1);stroke-width:1.004748;stroke-linecap:butt;stroke-linejoin:miter;stroke:url(#linear2);stroke-miterlimit:4;" d="M 11.399609 20.497812 C 16.154531 20.549375 21.612422 16.945156 21.603828 10.714687 L 16.56875 10.676875 C 16.475937 13.218047 13.657187 15.095781 11.399609 15.00125 " transform="matrix(4.545455,0,0,4.545455,0,0)"/>
<path style="fill:none;stroke-width:1.004748;stroke-linecap:butt;stroke-linejoin:miter;stroke:url(#linear3);stroke-miterlimit:4;" d="M 11.397031 16.001562 C 8.627266 15.961172 6.002734 13.585859 6.000156 10.438828 C 5.997578 7.735234 8.903984 4.961172 11.67375 5.001562 C 13.038437 5.020469 14.721953 5.2525 16.432109 6.862969 L 14.864609 8.500937 L 20.500391 8.500937 C 20.500391 8.500937 20.500391 2.878906 20.500391 2.878906 L 18.48 4.670703 C 16.671016 2.691562 14.531172 1.501328 11.702109 1.501328 C 6.502031 1.501328 2.499922 5.795625 2.499922 10.593516 C 2.499922 16.279141 7.192969 19.500937 11.650547 19.500937 " transform="matrix(4.545455,0,0,4.545455,0,0)"/>
<path style="fill:none;stroke-width:1.004748;stroke-linecap:butt;stroke-linejoin:round;stroke:url(#linear4);stroke-miterlimit:4;" d="M 11.465781 19.879922 C 14.675547 19.879922 20.500391 16.787891 20.500391 10.731016 L 17.447891 10.627031 C 17.447891 13.496484 14.992656 16.001562 11.213125 16.001562 " transform="matrix(4.545455,0,0,4.545455,0,0)"/>
<path style=" stroke:none;fill-rule:nonzero;fill:rgb(51.372549%,67.45098%,83.529412%);fill-opacity:1;" d="M 44.089844 75.203125 L 60.949219 75.203125 L 60.949219 86.054688 L 44.089844 86.054688 Z M 44.089844 75.203125 "/>
</g>
</svg>
