<?xml version="1.0" encoding="UTF-8"?>
<svg xmlns="http://www.w3.org/2000/svg" xmlns:xlink="http://www.w3.org/1999/xlink" width="100pt" height="100pt" viewBox="0 0 100 100" version="1.1">
<defs>
<filter id="alpha" filterUnits="objectBoundingBox" x="0%" y="0%" width="100%" height="100%">
  <feColorMatrix type="matrix" in="SourceGraphic" values="0 0 0 0 1 0 0 0 0 1 0 0 0 0 1 0 0 0 1 0"/>
</filter>
<mask id="mask0">
  <g filter="url(#alpha)">
<rect x="0" y="0" width="100" height="100" style="fill:rgb(0%,0%,0%);fill-opacity:0.301961;stroke:none;"/>
  </g>
</mask>
<clipPath id="clip1">
  <rect width="100" height="100"/>
</clipPath>
<g id="surface6" clip-path="url(#clip1)">
<path style=" stroke:none;fill-rule:nonzero;fill:rgb(0%,0%,0%);fill-opacity:1;" d="M 40.140625 17.015625 C 38.910156 16.414062 37.535156 16.097656 36.167969 16.097656 C 34.171875 16.097656 32.203125 16.769531 30.617188 17.996094 L 15.59375 29.660156 L 9.042969 29.664062 C 6.660156 29.664062 4.328125 30.625 2.644531 32.308594 C 0.960938 33.988281 0 36.324219 0 38.703125 L 0 61.300781 C 0 66.292969 4.058594 70.351562 9.207031 70.351562 L 15.59375 70.351562 L 30.628906 82.019531 C 32.210938 83.238281 34.175781 83.90625 36.160156 83.90625 C 37.539062 83.90625 38.914062 83.589844 40.140625 82.988281 C 43.269531 81.453125 45.207031 78.339844 45.207031 74.859375 L 45.207031 25.132812 C 45.203125 21.652344 43.265625 18.542969 40.140625 17.015625 Z M 41.046875 74.859375 C 41.046875 76.730469 39.988281 78.421875 38.3125 79.242188 C 37.628906 79.578125 36.894531 79.738281 36.164062 79.738281 C 35.101562 79.738281 34.046875 79.394531 33.175781 78.71875 L 17.019531 66.183594 L 9.042969 66.183594 C 6.347656 66.183594 4.164062 63.996094 4.164062 61.300781 L 4.164062 38.703125 C 4.164062 37.417969 4.683594 36.160156 5.589844 35.253906 C 6.503906 34.34375 7.757812 33.824219 9.042969 33.824219 L 17.023438 33.820312 L 33.171875 21.289062 C 34.644531 20.144531 36.632812 19.941406 38.308594 20.761719 C 39.988281 21.582031 41.042969 23.273438 41.042969 25.144531 L 41.042969 74.859375 Z M 41.046875 74.859375 "/>
</g>
<linearGradient id="linear0" gradientUnits="userSpaceOnUse" x1="39.098" y1="42.162" x2="13.965" y2="7.5698" gradientTransform="matrix(2.083333,0,0,2.083333,0,2.335417)">
<stop offset="0" style="stop-color:rgb(60.784314%,60.784314%,60.784314%);stop-opacity:1;"/>
<stop offset="1" style="stop-color:rgb(92.54902%,92.54902%,92.54902%);stop-opacity:1;"/>
</linearGradient>
<linearGradient id="linear1" gradientUnits="userSpaceOnUse" x1="37.841" y1="13.068" x2="37.841" y2="29.068" gradientTransform="matrix(2.083333,0,0,2.083333,0.456688,5.813542)">
<stop offset="0" style="stop-color:rgb(100%,38.823529%,38.823529%);stop-opacity:1;"/>
<stop offset="1" style="stop-color:rgb(80%,0%,0%);stop-opacity:1;"/>
</linearGradient>
<mask id="mask1">
  <g filter="url(#alpha)">
<rect x="0" y="0" width="100" height="100" style="fill:rgb(0%,0%,0%);fill-opacity:0.4;stroke:none;"/>
  </g>
</mask>
<clipPath id="clip2">
  <rect width="100" height="100"/>
</clipPath>
<g id="surface9" clip-path="url(#clip2)">
<path style=" stroke:none;fill-rule:nonzero;fill:rgb(100%,100%,100%);fill-opacity:1;" d="M 90.144531 33.28125 C 89.996094 33.125 89.78125 33.039062 89.566406 33.039062 C 89.351562 33.039062 89.136719 33.128906 88.988281 33.28125 L 79.621094 42.648438 L 80.726562 43.753906 L 90.417969 34.0625 C 90.507812 33.972656 90.621094 33.914062 90.738281 33.875 Z M 73.992188 50.488281 L 64.300781 40.792969 C 63.980469 40.476562 63.980469 39.957031 64.300781 39.632812 L 69.871094 34.0625 C 69.964844 33.96875 70.074219 33.910156 70.191406 33.871094 L 69.597656 33.28125 C 69.28125 32.960938 68.761719 32.960938 68.4375 33.28125 L 62.867188 38.851562 C 62.546875 39.171875 62.546875 39.691406 62.867188 40.011719 L 72.558594 49.707031 L 62.863281 59.398438 C 62.714844 59.550781 62.625 59.761719 62.625 59.976562 C 62.625 60.191406 62.714844 60.40625 62.863281 60.558594 L 68.4375 66.128906 C 68.589844 66.28125 68.800781 66.371094 69.015625 66.371094 C 69.105469 66.371094 69.191406 66.34375 69.277344 66.320312 L 64.296875 61.339844 C 64.144531 61.1875 64.058594 60.972656 64.058594 60.757812 C 64.058594 60.542969 64.144531 60.332031 64.296875 60.179688 Z M 80.398438 57.546875 L 88.984375 66.132812 C 89.140625 66.285156 89.347656 66.371094 89.566406 66.371094 C 89.65625 66.371094 89.742188 66.347656 89.824219 66.320312 L 80.722656 57.222656 Z M 80.398438 57.546875 "/>
</g>
</defs>
<g id="surface1">
<use xlink:href="#surface6" mask="url(#mask0)"/>
<path style=" stroke:none;fill-rule:nonzero;fill:url(#linear0);" d="M 41.046875 25.140625 L 41.046875 74.859375 C 41.046875 76.730469 39.988281 78.421875 38.3125 79.242188 C 37.628906 79.578125 36.894531 79.738281 36.164062 79.738281 C 35.101562 79.738281 34.046875 79.394531 33.175781 78.71875 L 17.019531 66.183594 L 9.042969 66.183594 C 6.347656 66.183594 4.164062 63.996094 4.164062 61.300781 L 4.164062 38.703125 C 4.164062 37.417969 4.683594 36.160156 5.589844 35.253906 C 6.503906 34.34375 7.757812 33.824219 9.042969 33.824219 L 17.023438 33.820312 L 33.171875 21.289062 C 34.644531 20.144531 36.632812 19.941406 38.308594 20.761719 C 39.988281 21.582031 41.042969 23.273438 41.046875 25.140625 Z M 41.046875 25.140625 "/>
<path style=" stroke:none;fill-rule:nonzero;fill:rgb(100%,100%,100%);fill-opacity:0.501961;" d="M 18.027344 66.964844 L 33.171875 78.722656 C 33.511719 78.984375 33.886719 79.179688 34.269531 79.34375 L 18.324219 66.964844 Z M 33.171875 21.289062 L 17.023438 33.820312 L 9.042969 33.824219 C 7.757812 33.824219 6.503906 34.34375 5.589844 35.253906 C 4.683594 36.164062 4.164062 37.417969 4.164062 38.703125 L 4.164062 61.300781 C 4.164062 63.363281 5.449219 65.121094 7.257812 65.835938 C 6.171875 64.941406 5.464844 63.601562 5.464844 62.082031 L 5.464844 39.484375 C 5.464844 38.199219 5.984375 36.941406 6.894531 36.035156 C 7.804688 35.125 9.058594 34.605469 10.34375 34.605469 L 18.328125 34.601562 L 34.472656 22.070312 C 35.867188 20.988281 37.710938 20.777344 39.324219 21.449219 C 39.015625 21.183594 38.683594 20.945312 38.308594 20.761719 C 36.632812 19.941406 34.648438 20.140625 33.171875 21.289062 Z M 33.171875 21.289062 "/>
<path style=" stroke:none;fill-rule:nonzero;fill:rgb(0%,0%,0%);fill-opacity:0.301961;" d="M 89.566406 70.832031 C 88.226562 70.832031 86.976562 70.316406 86.042969 69.375 L 79.292969 62.625 L 72.542969 69.378906 C 71.621094 70.300781 70.332031 70.832031 69.019531 70.832031 C 67.710938 70.832031 66.472656 70.328125 65.53125 69.414062 L 59.917969 63.800781 C 59.007812 62.914062 58.464844 61.613281 58.464844 60.273438 C 58.464844 58.964844 58.996094 57.679688 59.921875 56.75 L 66.671875 50.003906 L 59.921875 43.253906 C 57.992188 41.304688 57.992188 38.15625 59.902344 36.222656 L 65.496094 30.636719 C 66.4375 29.691406 67.6875 29.167969 69.019531 29.167969 C 70.363281 29.167969 71.625 29.695312 72.5625 30.652344 L 79.292969 37.382812 L 86.042969 30.632812 C 86.925781 29.71875 88.230469 29.171875 89.566406 29.171875 C 90.878906 29.171875 92.160156 29.707031 93.089844 30.632812 L 98.660156 36.207031 C 99.574219 37.089844 100.121094 38.394531 100.121094 39.730469 C 100.121094 41.039062 99.589844 42.324219 98.660156 43.253906 L 91.914062 50 L 98.660156 56.75 C 99.605469 57.691406 100.121094 58.941406 100.121094 60.273438 C 100.121094 61.605469 99.605469 62.855469 98.660156 63.796875 L 93.09375 69.371094 C 92.15625 70.316406 90.902344 70.832031 89.566406 70.832031 Z M 89.566406 70.832031 "/>
<path style=" stroke:none;fill-rule:nonzero;fill:url(#linear1);" d="M 86.027344 49.707031 L 95.71875 40.011719 C 95.871094 39.863281 95.957031 39.648438 95.957031 39.433594 C 95.957031 39.21875 95.871094 39.007812 95.71875 38.851562 L 90.144531 33.28125 C 89.992188 33.128906 89.78125 33.042969 89.566406 33.042969 C 89.347656 33.042969 89.136719 33.128906 88.984375 33.28125 L 79.292969 42.972656 L 69.597656 33.28125 C 69.28125 32.960938 68.761719 32.960938 68.4375 33.28125 L 62.867188 38.851562 C 62.546875 39.175781 62.546875 39.695312 62.867188 40.015625 L 72.558594 49.710938 L 62.863281 59.402344 C 62.714844 59.554688 62.625 59.765625 62.625 59.980469 C 62.625 60.195312 62.714844 60.40625 62.863281 60.558594 L 68.4375 66.132812 C 68.589844 66.285156 68.800781 66.371094 69.015625 66.371094 C 69.234375 66.371094 69.445312 66.285156 69.597656 66.132812 L 79.289062 56.441406 L 88.984375 66.132812 C 89.136719 66.285156 89.34375 66.371094 89.5625 66.371094 C 89.78125 66.371094 89.988281 66.285156 90.140625 66.132812 L 95.714844 60.558594 C 95.871094 60.40625 95.953125 60.199219 95.953125 59.980469 C 95.953125 59.761719 95.871094 59.554688 95.714844 59.402344 Z M 86.027344 49.707031 "/>
<use xlink:href="#surface9" mask="url(#mask1)"/>
</g>
</svg>
