<?xml version="1.0" encoding="UTF-8"?>
<svg xmlns="http://www.w3.org/2000/svg" xmlns:xlink="http://www.w3.org/1999/xlink" width="100pt" height="100pt" viewBox="0 0 100 100" version="1.1">
<defs>
<filter id="alpha" filterUnits="objectBoundingBox" x="0%" y="0%" width="100%" height="100%">
  <feColorMatrix type="matrix" in="SourceGraphic" values="0 0 0 0 1 0 0 0 0 1 0 0 0 0 1 0 0 0 1 0"/>
</filter>
<mask id="mask0">
  <g filter="url(#alpha)">
<rect x="0" y="0" width="100" height="100" style="fill:rgb(0%,0%,0%);fill-opacity:0.301961;stroke:none;"/>
  </g>
</mask>
<clipPath id="clip1">
  <rect width="100" height="100"/>
</clipPath>
<g id="surface6" clip-path="url(#clip1)">
<path style=" stroke:none;fill-rule:nonzero;fill:rgb(0%,0%,0%);fill-opacity:1;" d="M 82.113281 5.878906 L 80.300781 3.980469 C 79.367188 2.933594 78.015625 2.335938 76.589844 2.335938 C 75.273438 2.335938 73.988281 2.867188 73.050781 3.800781 L 71.121094 5.738281 L 68.976562 7.886719 L 67.140625 9.722656 C 66.339844 10.515625 65.871094 11.527344 65.726562 12.578125 C 64.589844 12.707031 63.519531 13.226562 62.753906 14.015625 L 60.847656 15.914062 L 57.039062 19.722656 C 56.226562 20.539062 55.746094 21.566406 55.605469 22.628906 C 54.503906 22.753906 53.472656 23.238281 52.621094 24.066406 L 50.792969 25.902344 L 48.996094 27.699219 L 47.316406 29.382812 C 45.410156 31.285156 45.347656 34.328125 47.148438 36.285156 L 48.75 38.046875 C 51.957031 41.578125 53.660156 45.714844 53.667969 49.992188 C 53.660156 54.285156 51.957031 58.421875 48.746094 61.960938 L 47.171875 63.691406 C 45.347656 65.671875 45.410156 68.714844 47.316406 70.621094 L 48.988281 72.292969 L 49.898438 73.207031 L 52.671875 75.980469 C 53.476562 76.769531 54.503906 77.25 55.601562 77.375 C 55.738281 78.4375 56.21875 79.464844 57.039062 80.285156 L 58.820312 82.058594 L 60.839844 84.085938 L 62.746094 85.992188 C 63.546875 86.789062 64.601562 87.296875 65.71875 87.425781 C 65.859375 88.484375 66.332031 89.496094 67.140625 90.289062 L 73.054688 96.203125 C 74 97.148438 75.257812 97.667969 76.597656 97.667969 L 76.683594 97.667969 C 78.050781 97.644531 79.355469 97.058594 80.226562 96.113281 L 82.113281 94.121094 C 93.644531 81.972656 99.996094 66.300781 99.996094 49.972656 C 99.996094 33.6875 93.644531 18.035156 82.113281 5.878906 Z M 58.550781 71.050781 L 56.792969 72.964844 C 56.636719 73.132812 56.417969 73.234375 56.191406 73.238281 L 56.171875 73.238281 C 55.949219 73.238281 55.734375 73.148438 55.574219 72.996094 L 53.738281 71.15625 L 51.941406 69.359375 L 50.261719 67.675781 C 49.945312 67.359375 49.929688 66.847656 50.234375 66.515625 L 51.832031 64.757812 C 55.890625 60.289062 57.820312 55.136719 57.828125 50.003906 C 57.820312 44.867188 55.890625 39.714844 51.832031 35.242188 L 50.234375 33.488281 C 49.929688 33.152344 49.941406 32.644531 50.261719 32.324219 L 51.941406 30.644531 C 52.660156 29.925781 53.019531 29.566406 53.738281 28.851562 L 55.574219 27.011719 C 55.738281 26.851562 55.960938 26.761719 56.191406 26.765625 C 56.417969 26.769531 56.636719 26.867188 56.792969 27.039062 L 58.550781 28.953125 C 64.136719 35.03125 67.023438 42.484375 67.023438 49.964844 L 67.023438 50.003906 C 67.023438 57.488281 64.148438 64.953125 58.550781 71.050781 Z M 68.75 81.054688 L 66.90625 83.023438 C 66.753906 83.191406 66.53125 83.289062 66.304688 83.292969 L 66.292969 83.292969 C 66.070312 83.292969 65.851562 83.203125 65.695312 83.046875 L 63.785156 81.136719 C 62.980469 80.332031 62.578125 79.929688 61.769531 79.117188 L 59.984375 77.335938 C 59.664062 77.015625 59.65625 76.496094 59.964844 76.167969 L 61.679688 74.320312 C 68.316406 67.195312 71.558594 58.601562 71.566406 50.011719 C 71.558594 41.410156 68.316406 32.808594 61.683594 25.679688 L 59.964844 23.832031 C 59.65625 23.5 59.664062 22.984375 59.984375 22.664062 L 61.769531 20.882812 C 62.578125 20.074219 62.980469 19.671875 63.785156 18.863281 L 65.699219 16.953125 C 65.855469 16.792969 66.078125 16.703125 66.304688 16.707031 C 66.53125 16.710938 66.753906 16.804688 66.90625 16.972656 L 68.75 18.945312 C 77.082031 27.835938 81.320312 38.910156 81.320312 49.984375 L 81.320312 50.015625 C 81.320312 61.09375 77.082031 72.164062 68.75 81.054688 Z M 79.089844 91.253906 L 77.207031 93.242188 C 77.050781 93.402344 76.835938 93.496094 76.609375 93.503906 L 76.597656 93.503906 C 76.371094 93.503906 76.160156 93.414062 76.003906 93.253906 L 74.066406 91.320312 C 73.207031 90.460938 72.773438 90.03125 71.917969 89.167969 L 70.082031 87.335938 C 69.761719 87.015625 69.753906 86.496094 70.066406 86.164062 L 71.847656 84.277344 C 81.15625 74.425781 85.777344 62.25 85.78125 50.074219 C 85.777344 37.835938 81.183594 25.613281 71.847656 15.726562 L 70.066406 13.839844 C 69.757812 13.511719 69.761719 12.988281 70.082031 12.667969 L 71.917969 10.835938 C 72.773438 9.976562 73.207031 9.542969 74.066406 8.683594 L 76.003906 6.75 C 76.160156 6.585938 76.382812 6.5 76.609375 6.503906 C 76.835938 6.503906 77.050781 6.601562 77.207031 6.765625 L 79.089844 8.753906 C 90.210938 20.472656 95.828125 35.222656 95.828125 49.972656 L 95.828125 50.003906 C 95.828125 64.757812 90.21875 79.523438 79.089844 91.253906 Z M 40.140625 17.015625 C 38.910156 16.414062 37.535156 16.097656 36.167969 16.097656 C 34.171875 16.097656 32.203125 16.769531 30.617188 17.996094 L 15.59375 29.660156 L 9.042969 29.664062 C 6.660156 29.664062 4.328125 30.625 2.644531 32.308594 C 0.960938 33.988281 0 36.324219 0 38.703125 L 0 61.300781 C 0 66.292969 4.058594 70.351562 9.207031 70.351562 L 15.59375 70.351562 L 30.628906 82.019531 C 32.210938 83.238281 34.175781 83.90625 36.160156 83.90625 C 37.539062 83.90625 38.914062 83.589844 40.140625 82.988281 C 43.269531 81.453125 45.207031 78.339844 45.207031 74.859375 L 45.207031 25.132812 C 45.203125 21.652344 43.265625 18.542969 40.140625 17.015625 Z M 41.046875 74.859375 C 41.046875 76.730469 39.988281 78.421875 38.3125 79.242188 C 37.628906 79.578125 36.894531 79.738281 36.164062 79.738281 C 35.101562 79.738281 34.046875 79.394531 33.175781 78.71875 L 17.019531 66.183594 L 9.042969 66.183594 C 6.347656 66.183594 4.164062 63.996094 4.164062 61.300781 L 4.164062 38.703125 C 4.164062 37.417969 4.683594 36.160156 5.589844 35.253906 C 6.503906 34.34375 7.757812 33.824219 9.042969 33.824219 L 17.023438 33.820312 L 33.171875 21.289062 C 34.644531 20.144531 36.632812 19.941406 38.308594 20.761719 C 39.988281 21.582031 41.042969 23.273438 41.042969 25.144531 L 41.042969 74.859375 Z M 41.046875 74.859375 "/>
</g>
<linearGradient id="linear0" gradientUnits="userSpaceOnUse" x1="39.098" y1="42.162" x2="13.965" y2="7.5698" gradientTransform="matrix(2.083333,0,0,2.083333,0,2.335417)">
<stop offset="0" style="stop-color:rgb(60.784314%,60.784314%,60.784314%);stop-opacity:1;"/>
<stop offset="1" style="stop-color:rgb(92.54902%,92.54902%,92.54902%);stop-opacity:1;"/>
</linearGradient>
<mask id="mask1">
  <g filter="url(#alpha)">
<rect x="0" y="0" width="100" height="100" style="fill:rgb(0%,0%,0%);fill-opacity:0.501961;stroke:none;"/>
  </g>
</mask>
<clipPath id="clip2">
  <rect width="100" height="100"/>
</clipPath>
<g id="surface9" clip-path="url(#clip2)">
<path style=" stroke:none;fill-rule:nonzero;fill:rgb(100%,100%,100%);fill-opacity:1;" d="M 18.027344 66.964844 L 33.171875 78.722656 C 33.511719 78.984375 33.886719 79.179688 34.269531 79.34375 L 18.324219 66.964844 Z M 33.171875 21.289062 L 17.023438 33.820312 L 9.042969 33.824219 C 7.757812 33.824219 6.503906 34.34375 5.589844 35.253906 C 4.683594 36.164062 4.164062 37.417969 4.164062 38.703125 L 4.164062 61.300781 C 4.164062 63.363281 5.449219 65.121094 7.257812 65.835938 C 6.171875 64.941406 5.464844 63.601562 5.464844 62.082031 L 5.464844 39.484375 C 5.464844 38.199219 5.984375 36.941406 6.894531 36.035156 C 7.804688 35.125 9.058594 34.605469 10.34375 34.605469 L 18.328125 34.601562 L 34.472656 22.070312 C 35.867188 20.988281 37.710938 20.777344 39.324219 21.449219 C 39.015625 21.183594 38.683594 20.945312 38.308594 20.761719 C 36.632812 19.941406 34.648438 20.140625 33.171875 21.289062 Z M 53.132812 65.539062 C 57.195312 61.070312 59.121094 55.917969 59.132812 50.785156 C 59.121094 45.648438 57.195312 40.496094 53.132812 36.023438 L 51.539062 34.269531 C 51.234375 33.933594 51.246094 33.425781 51.566406 33.105469 L 53.242188 31.425781 C 53.964844 30.707031 54.324219 30.347656 55.042969 29.632812 L 56.878906 27.792969 C 56.992188 27.679688 57.136719 27.617188 57.292969 27.582031 L 56.792969 27.039062 C 56.636719 26.867188 56.417969 26.769531 56.191406 26.765625 C 55.960938 26.761719 55.738281 26.851562 55.574219 27.011719 L 53.738281 28.851562 C 53.019531 29.570312 52.660156 29.925781 51.941406 30.644531 L 50.261719 32.324219 C 49.945312 32.644531 49.929688 33.152344 50.234375 33.488281 L 51.832031 35.242188 C 55.890625 39.714844 57.820312 44.867188 57.828125 50.003906 C 57.820312 55.136719 55.890625 60.289062 51.832031 64.757812 L 50.234375 66.515625 C 49.929688 66.847656 49.941406 67.359375 50.261719 67.675781 L 51.941406 69.359375 C 52.660156 70.078125 53.019531 70.4375 53.738281 71.15625 L 55.574219 72.996094 C 55.734375 73.148438 55.949219 73.238281 56.171875 73.238281 L 56.191406 73.238281 C 56.234375 73.238281 56.269531 73.21875 56.316406 73.210938 L 53.246094 70.140625 L 51.566406 68.457031 C 51.25 68.140625 51.238281 67.628906 51.542969 67.296875 Z M 73.21875 89.949219 L 71.382812 88.117188 C 71.0625 87.796875 71.054688 87.277344 71.367188 86.945312 L 73.148438 85.058594 C 82.457031 75.207031 87.082031 63.03125 87.082031 50.855469 C 87.078125 38.617188 82.484375 26.394531 73.148438 16.507812 L 71.367188 14.621094 C 71.058594 14.292969 71.0625 13.769531 71.382812 13.449219 L 73.21875 11.617188 C 74.078125 10.757812 74.507812 10.324219 75.367188 9.464844 L 77.304688 7.53125 C 77.421875 7.414062 77.570312 7.351562 77.730469 7.316406 L 77.207031 6.765625 C 77.050781 6.597656 76.835938 6.503906 76.605469 6.5 C 76.378906 6.496094 76.160156 6.585938 76 6.746094 L 74.0625 8.679688 C 73.203125 9.542969 72.773438 9.972656 71.914062 10.832031 L 70.078125 12.664062 C 69.757812 12.984375 69.753906 13.507812 70.0625 13.835938 L 71.84375 15.722656 C 81.179688 25.609375 85.777344 37.832031 85.777344 50.070312 C 85.773438 62.246094 81.152344 74.421875 71.84375 84.273438 L 70.0625 86.160156 C 69.75 86.492188 69.757812 87.011719 70.078125 87.332031 L 71.914062 89.164062 C 72.773438 90.027344 73.203125 90.457031 74.0625 91.316406 L 76 93.25 C 76.160156 93.410156 76.371094 93.496094 76.59375 93.496094 L 76.605469 93.496094 C 76.652344 93.496094 76.695312 93.476562 76.738281 93.46875 L 75.363281 92.097656 C 74.507812 91.242188 74.078125 90.8125 73.21875 89.949219 Z M 63.074219 79.898438 L 61.289062 78.117188 C 60.964844 77.796875 60.957031 77.28125 61.265625 76.949219 L 62.984375 75.101562 C 69.617188 67.976562 72.863281 59.382812 72.867188 50.796875 C 72.863281 42.195312 69.617188 33.589844 62.988281 26.460938 L 61.265625 24.617188 C 60.957031 24.285156 60.964844 23.769531 61.289062 23.445312 L 63.074219 21.664062 C 63.878906 20.859375 64.28125 20.453125 65.085938 19.644531 L 67 17.738281 C 67.113281 17.621094 67.261719 17.558594 67.421875 17.523438 L 66.90625 16.976562 C 66.753906 16.808594 66.53125 16.710938 66.304688 16.707031 C 66.078125 16.707031 65.855469 16.792969 65.699219 16.957031 L 63.785156 18.863281 C 62.980469 19.671875 62.578125 20.078125 61.769531 20.882812 L 59.984375 22.664062 C 59.664062 22.984375 59.65625 23.503906 59.964844 23.835938 L 61.683594 25.679688 C 68.320312 32.808594 71.558594 41.414062 71.566406 50.015625 C 71.558594 58.605469 68.3125 67.199219 61.679688 74.320312 L 59.964844 76.167969 C 59.65625 76.496094 59.664062 77.015625 59.984375 77.335938 L 61.769531 79.117188 C 62.578125 79.929688 62.980469 80.332031 63.785156 81.136719 L 65.695312 83.046875 C 65.851562 83.203125 66.070312 83.292969 66.292969 83.292969 L 66.304688 83.292969 C 66.347656 83.292969 66.390625 83.273438 66.433594 83.265625 L 65.085938 81.917969 C 64.28125 81.113281 63.878906 80.710938 63.074219 79.898438 Z M 63.074219 79.898438 "/>
</g>
</defs>
<g id="surface1">
<use xlink:href="#surface6" mask="url(#mask0)"/>
<path style=" stroke:none;fill-rule:nonzero;fill:url(#linear0);" d="M 41.046875 25.140625 L 41.046875 74.859375 C 41.046875 76.730469 39.988281 78.421875 38.3125 79.242188 C 37.628906 79.578125 36.894531 79.738281 36.164062 79.738281 C 35.101562 79.738281 34.046875 79.394531 33.175781 78.71875 L 17.019531 66.183594 L 9.042969 66.183594 C 6.347656 66.183594 4.164062 63.996094 4.164062 61.300781 L 4.164062 38.703125 C 4.164062 37.417969 4.683594 36.160156 5.589844 35.253906 C 6.503906 34.34375 7.757812 33.824219 9.042969 33.824219 L 17.023438 33.820312 L 33.171875 21.289062 C 34.644531 20.144531 36.632812 19.941406 38.308594 20.761719 C 39.988281 21.582031 41.042969 23.273438 41.046875 25.140625 Z M 76 93.253906 C 76.160156 93.414062 76.371094 93.503906 76.59375 93.503906 L 76.605469 93.503906 C 76.832031 93.496094 77.050781 93.402344 77.203125 93.242188 L 79.085938 91.253906 C 90.214844 79.523438 95.828125 64.757812 95.828125 50 L 95.828125 49.964844 C 95.828125 35.214844 90.207031 20.464844 79.085938 8.746094 L 77.203125 6.761719 C 77.050781 6.597656 76.835938 6.503906 76.605469 6.5 C 76.378906 6.496094 76.160156 6.585938 76 6.746094 L 74.0625 8.683594 C 73.203125 9.542969 72.773438 9.972656 71.914062 10.832031 L 70.078125 12.667969 C 69.757812 12.988281 69.753906 13.511719 70.0625 13.839844 L 71.84375 15.722656 C 81.179688 25.609375 85.777344 37.835938 85.777344 50.070312 C 85.773438 62.246094 81.152344 74.421875 71.84375 84.277344 L 70.0625 86.160156 C 69.75 86.492188 69.757812 87.015625 70.078125 87.335938 L 71.914062 89.167969 C 72.773438 90.027344 73.203125 90.460938 74.0625 91.320312 Z M 65.695312 83.046875 C 65.851562 83.203125 66.070312 83.292969 66.292969 83.292969 L 66.304688 83.292969 C 66.53125 83.289062 66.753906 83.191406 66.90625 83.023438 L 68.75 81.054688 C 77.082031 72.164062 81.320312 61.09375 81.320312 50.015625 L 81.320312 49.984375 C 81.320312 38.910156 77.082031 27.835938 68.75 18.945312 L 66.90625 16.976562 C 66.753906 16.808594 66.53125 16.710938 66.304688 16.707031 C 66.078125 16.707031 65.855469 16.792969 65.699219 16.957031 L 63.785156 18.863281 C 62.980469 19.671875 62.578125 20.078125 61.769531 20.882812 L 59.984375 22.664062 C 59.664062 22.984375 59.65625 23.503906 59.964844 23.835938 L 61.683594 25.679688 C 68.320312 32.808594 71.558594 41.414062 71.566406 50.015625 C 71.558594 58.605469 68.3125 67.199219 61.679688 74.320312 L 59.964844 76.167969 C 59.65625 76.496094 59.664062 77.015625 59.984375 77.335938 L 61.769531 79.117188 C 62.578125 79.929688 62.980469 80.332031 63.785156 81.136719 Z M 55.574219 72.996094 C 55.734375 73.148438 55.949219 73.238281 56.171875 73.238281 L 56.191406 73.238281 C 56.417969 73.234375 56.636719 73.132812 56.792969 72.964844 L 58.550781 71.050781 C 64.148438 64.953125 67.023438 57.488281 67.023438 50 L 67.023438 49.960938 C 67.023438 42.480469 64.136719 35.03125 58.550781 28.949219 L 56.792969 27.035156 C 56.636719 26.867188 56.417969 26.769531 56.191406 26.761719 C 55.960938 26.757812 55.738281 26.847656 55.574219 27.011719 L 53.738281 28.847656 C 53.019531 29.566406 52.660156 29.925781 51.941406 30.644531 L 50.261719 32.324219 C 49.945312 32.640625 49.929688 33.152344 50.234375 33.484375 L 51.832031 35.242188 C 55.890625 39.714844 57.820312 44.867188 57.828125 50 C 57.820312 55.132812 55.890625 60.285156 51.832031 64.757812 L 50.234375 66.515625 C 49.929688 66.84375 49.941406 67.355469 50.261719 67.675781 L 51.941406 69.355469 C 52.660156 70.078125 53.019531 70.433594 53.738281 71.152344 Z M 55.574219 72.996094 "/>
<use xlink:href="#surface9" mask="url(#mask1)"/>
</g>
</svg>
