<?xml version="1.0" encoding="UTF-8"?>
<svg xmlns="http://www.w3.org/2000/svg" xmlns:xlink="http://www.w3.org/1999/xlink" width="100pt" height="100pt" viewBox="0 0 100 100" version="1.1">
<defs>
<linearGradient id="linear0" gradientUnits="userSpaceOnUse" x1="12" y1="1.989523" x2="12" y2="21" >
<stop offset="0" style="stop-color:rgb(100%,100%,100%);stop-opacity:1;"/>
<stop offset="1" style="stop-color:rgb(90.196078%,90.196078%,90.196078%);stop-opacity:1;"/>
</linearGradient>
<filter id="alpha" filterUnits="objectBoundingBox" x="0%" y="0%" width="100%" height="100%">
  <feColorMatrix type="matrix" in="SourceGraphic" values="0 0 0 0 1 0 0 0 0 1 0 0 0 0 1 0 0 0 1 0"/>
</filter>
<mask id="mask0">
  <g filter="url(#alpha)">
<rect x="0" y="0" width="100" height="100" style="fill:rgb(0%,0%,0%);fill-opacity:0.4;stroke:none;"/>
  </g>
</mask>
<linearGradient id="linear1" gradientUnits="userSpaceOnUse" x1="51.780437" y1="7.257576" x2="51.780437" y2="31.112288" gradientTransform="matrix(1.708794,0,0,0.873729,-36.661396,51.992175)">
<stop offset="0" style="stop-color:rgb(100%,100%,100%);stop-opacity:1;"/>
<stop offset="1" style="stop-color:rgb(90.196078%,90.196078%,90.196078%);stop-opacity:1;"/>
</linearGradient>
<clipPath id="clip1">
  <rect width="100" height="100"/>
</clipPath>
<g id="surface6" clip-path="url(#clip1)">
<path style=" stroke:none;fill-rule:nonzero;fill:rgb(0%,0%,0%);fill-opacity:0.501961;" d="M 37.5 62.5 L 62.5 62.5 L 62.5 83.332031 L 37.5 83.332031 Z M 37.5 62.5 "/>
<path style=" stroke:none;fill-rule:nonzero;fill:url(#linear1);" d="M 37.5 58.332031 L 62.5 58.332031 L 62.5 79.167969 L 37.5 79.167969 Z M 37.5 58.332031 "/>
</g>
<linearGradient id="linear2" gradientUnits="userSpaceOnUse" x1="51.780437" y1="7.257576" x2="51.780437" y2="31.112288" gradientTransform="matrix(1.708794,0,0,2.271696,-36.661392,8.51299)">
<stop offset="0" style="stop-color:rgb(100%,100%,100%);stop-opacity:1;"/>
<stop offset="1" style="stop-color:rgb(90.196078%,90.196078%,90.196078%);stop-opacity:1;"/>
</linearGradient>
</defs>
<g id="surface1">
<path style="fill:none;stroke-width:1;stroke-linecap:round;stroke-linejoin:miter;stroke:rgb(0%,0%,0%);stroke-opacity:0.501961;stroke-miterlimit:4;" d="M 7.5 20.500312 L 7.5 6.499687 C 7.5 5.945625 7.94625 5.500312 8.500312 5.500312 L 15.499688 5.500312 C 16.05375 5.500312 16.5 5.945625 16.5 6.499687 L 16.5 20.500312 C 16.5 21.054375 16.05375 21.499688 15.499688 21.499688 L 8.500312 21.499688 C 7.94625 21.499688 7.5 21.054375 7.5 20.500312 Z M 10.502812 5.38125 C 10.50375 5.053125 10.50375 4.725937 10.504687 4.397812 C 10.545937 3.799687 11.154375 3.420937 11.716875 3.499687 C 12.250312 3.523125 12.894375 3.375938 13.272187 3.863437 C 13.622813 4.30125 13.463437 4.884375 13.5 5.4 " transform="matrix(4.166667,0,0,4.166667,0,0)"/>
<path style="fill:none;stroke-width:0.5;stroke-linecap:round;stroke-linejoin:miter;stroke:rgb(100%,100%,100%);stroke-opacity:0.2;stroke-miterlimit:4;" d="M -19.5 8.25 L -5.500312 8.25 C -5.361562 8.25 -5.25 8.361562 -5.25 8.500312 L -5.25 15.499688 C -5.25 15.638438 -5.361562 15.75 -5.500312 15.75 L -19.5 15.75 C -19.637812 15.75 -19.750312 15.638438 -19.750312 15.499688 L -19.750312 8.500312 C -19.750312 8.361562 -19.637812 8.25 -19.5 8.25 Z M -19.5 8.25 " transform="matrix(0,-4.166667,4.166667,0,0,0)"/>
<path style="fill:none;stroke-width:1;stroke-linecap:round;stroke-linejoin:miter;stroke:url(#linear0);stroke-miterlimit:4;" d="M 7.5 19.5 L 7.5 5.500312 C 7.5 4.94625 7.94625 4.5 8.500312 4.5 L 15.499688 4.5 C 16.05375 4.5 16.5 4.94625 16.5 5.500312 L 16.5 19.5 C 16.5 20.054063 16.05375 20.500312 15.499688 20.500312 L 8.500312 20.500312 C 7.94625 20.500312 7.5 20.054063 7.5 19.5 Z M 10.502812 4.381875 C 10.50375 4.05375 10.50375 3.725625 10.504687 3.3975 C 10.545937 2.799375 11.154375 2.420625 11.716875 2.500312 C 12.250312 2.52375 12.894375 2.375625 13.272187 2.863125 C 13.622813 3.301875 13.463437 3.884062 13.5 4.400625 " transform="matrix(4.166667,0,0,4.166667,0,0)"/>
<use xlink:href="#surface6" mask="url(#mask0)"/>
<path style=" stroke:none;fill-rule:nonzero;fill:rgb(0%,0%,0%);fill-opacity:0.4;" d="M 62.730469 29.050781 L 33.5625 58.214844 L 50.230469 58.214844 L 37.730469 83.214844 L 66.898438 49.882812 L 54.398438 49.882812 Z M 62.730469 29.050781 "/>
<path style=" stroke:none;fill-rule:nonzero;fill:url(#linear2);" d="M 62.730469 24.886719 L 33.5625 54.050781 L 50.230469 54.050781 L 37.730469 79.050781 L 66.898438 45.71875 L 54.398438 45.71875 Z M 62.730469 24.886719 "/>
</g>
</svg>
