<?xml version="1.0" encoding="UTF-8"?>
<svg xmlns="http://www.w3.org/2000/svg" xmlns:xlink="http://www.w3.org/1999/xlink" width="100pt" height="100pt" viewBox="0 0 100 100" version="1.1">
<defs>
<linearGradient id="linear0" gradientUnits="userSpaceOnUse" x1="12" y1="1.989523" x2="12" y2="21" >
<stop offset="0" style="stop-color:rgb(100%,35.294118%,35.294118%);stop-opacity:1;"/>
<stop offset="0.704952" style="stop-color:rgb(87.058824%,25.098039%,25.098039%);stop-opacity:1;"/>
<stop offset="1" style="stop-color:rgb(74.117647%,12.941176%,12.941176%);stop-opacity:1;"/>
</linearGradient>
<linearGradient id="linear1" gradientUnits="userSpaceOnUse" x1="11.376964" y1="7" x2="11.376964" y2="17.01939" gradientTransform="matrix(4.166667,0,0,4.166667,0,0)">
<stop offset="0" style="stop-color:rgb(100%,35.294118%,35.294118%);stop-opacity:1;"/>
<stop offset="0.704952" style="stop-color:rgb(87.058824%,25.098039%,25.098039%);stop-opacity:1;"/>
<stop offset="1" style="stop-color:rgb(74.117647%,12.941176%,12.941176%);stop-opacity:1;"/>
</linearGradient>
<linearGradient id="linear2" gradientUnits="userSpaceOnUse" x1="11.376964" y1="14.98917" x2="11.376964" y2="17.01939" gradientTransform="matrix(4.166667,0,0,4.166667,0,0)">
<stop offset="0" style="stop-color:rgb(100%,35.294118%,35.294118%);stop-opacity:1;"/>
<stop offset="0.704952" style="stop-color:rgb(87.058824%,25.098039%,25.098039%);stop-opacity:1;"/>
<stop offset="1" style="stop-color:rgb(74.117647%,12.941176%,12.941176%);stop-opacity:1;"/>
</linearGradient>
</defs>
<g id="surface1">
<path style=" stroke:none;fill-rule:nonzero;fill:rgb(0%,0%,0%);fill-opacity:0.501961;" d="M 50 33.332031 C 47.691406 33.332031 45.832031 35.191406 45.832031 37.5 L 45.832031 58.332031 C 45.832031 60.640625 47.691406 62.5 50 62.5 C 52.308594 62.5 54.167969 60.640625 54.167969 58.332031 L 54.167969 37.5 C 54.167969 35.191406 52.308594 33.332031 50 33.332031 Z M 48.957031 66.667969 C 47.226562 66.667969 45.832031 68.058594 45.832031 69.792969 L 45.832031 71.875 C 45.832031 73.605469 47.226562 75 48.957031 75 L 51.042969 75 C 52.773438 75 54.167969 73.605469 54.167969 71.875 L 54.167969 69.792969 C 54.167969 68.058594 52.773438 66.667969 51.042969 66.667969 Z M 48.957031 66.667969 "/>
<path style="fill:none;stroke-width:0.5;stroke-linecap:round;stroke-linejoin:miter;stroke:rgb(94.117647%,0%,0%);stroke-opacity:0.301961;stroke-miterlimit:4;" d="M -19.5 8.25 L -5.500312 8.25 C -5.361562 8.25 -5.25 8.361562 -5.25 8.500312 L -5.25 15.499688 C -5.25 15.638438 -5.361562 15.75 -5.500312 15.75 L -19.5 15.75 C -19.637812 15.75 -19.750312 15.638438 -19.750312 15.499688 L -19.750312 8.500312 C -19.750312 8.361562 -19.637812 8.25 -19.5 8.25 Z M -19.5 8.25 " transform="matrix(0,-4.166667,4.166667,0,0,0)"/>
<path style="fill:none;stroke-width:1;stroke-linecap:round;stroke-linejoin:miter;stroke:rgb(0%,0%,0%);stroke-opacity:0.501961;stroke-miterlimit:4;" d="M 7.5 20.500312 L 7.5 6.499687 C 7.5 5.945625 7.94625 5.500312 8.500312 5.500312 L 15.499688 5.500312 C 16.05375 5.500312 16.5 5.945625 16.5 6.499687 L 16.5 20.500312 C 16.5 21.054375 16.05375 21.499688 15.499688 21.499688 L 8.500312 21.499688 C 7.94625 21.499688 7.5 21.054375 7.5 20.500312 Z M 10.502812 5.38125 C 10.50375 5.053125 10.504687 4.725937 10.504687 4.397812 C 10.545 3.799687 11.154375 3.420937 11.716875 3.499687 C 12.249375 3.523125 12.893437 3.375938 13.27125 3.863437 C 13.622813 4.30125 13.463437 4.884375 13.499062 5.4 " transform="matrix(4.166667,0,0,4.166667,0,0)"/>
<path style="fill:none;stroke-width:1;stroke-linecap:round;stroke-linejoin:miter;stroke:url(#linear0);stroke-miterlimit:4;" d="M 7.5 19.5 L 7.5 5.500312 C 7.5 4.94625 7.94625 4.5 8.500312 4.5 L 15.499688 4.5 C 16.05375 4.5 16.5 4.94625 16.5 5.500312 L 16.5 19.5 C 16.5 20.054063 16.05375 20.500312 15.499688 20.500312 L 8.500312 20.500312 C 7.94625 20.500312 7.5 20.054063 7.5 19.5 Z M 10.502812 4.381875 C 10.50375 4.05375 10.504687 3.725625 10.504687 3.3975 C 10.545 2.799375 11.154375 2.420625 11.716875 2.500312 C 12.249375 2.52375 12.893437 2.375625 13.27125 2.863125 C 13.622813 3.301875 13.463437 3.884062 13.499062 4.400625 " transform="matrix(4.166667,0,0,4.166667,0,0)"/>
<path style=" stroke:none;fill-rule:nonzero;fill:url(#linear1);" d="M 50 29.167969 C 52.308594 29.167969 54.167969 31.023438 54.167969 33.332031 L 54.167969 54.167969 C 54.167969 56.476562 52.308594 58.332031 50 58.332031 C 47.691406 58.332031 45.832031 56.476562 45.832031 54.167969 L 45.832031 33.332031 C 45.832031 31.023438 47.691406 29.167969 50 29.167969 Z M 50 29.167969 "/>
<path style=" stroke:none;fill-rule:nonzero;fill:url(#linear2);" d="M 48.957031 62.5 L 51.042969 62.5 C 52.773438 62.5 54.167969 63.894531 54.167969 65.625 L 54.167969 67.707031 C 54.167969 69.441406 52.773438 70.832031 51.042969 70.832031 L 48.957031 70.832031 C 47.226562 70.832031 45.832031 69.441406 45.832031 67.707031 L 45.832031 65.625 C 45.832031 63.894531 47.226562 62.5 48.957031 62.5 Z M 48.957031 62.5 "/>
</g>
</svg>
