<?xml version="1.0" encoding="UTF-8"?>
<svg xmlns="http://www.w3.org/2000/svg" xmlns:xlink="http://www.w3.org/1999/xlink" width="100pt" height="100pt" viewBox="0 0 100 100" version="1.1">
<g id="surface1">
<path style=" stroke:none;fill-rule:nonzero;fill:rgb(74.509804%,74.509804%,74.509804%);fill-opacity:1;" d="M 48.4375 12.5 C 47.570312 12.5 46.875 13.195312 46.875 14.0625 L 46.875 23.4375 C 46.875 24.304688 47.570312 25 48.4375 25 L 51.5625 25 C 52.429688 25 53.125 24.304688 53.125 23.4375 L 53.125 14.0625 C 53.125 13.195312 52.429688 12.5 51.5625 12.5 Z M 25.78125 21.875 C 25.382812 21.875 24.914062 22.15625 24.609375 22.460938 L 22.460938 24.609375 C 21.847656 25.222656 21.847656 26.144531 22.460938 26.757812 L 29.101562 33.398438 C 29.714844 34.011719 30.636719 34.011719 31.25 33.398438 L 33.398438 31.25 C 34.011719 30.636719 34.011719 29.714844 33.398438 29.101562 L 26.757812 22.460938 C 26.453125 22.15625 26.179688 21.875 25.78125 21.875 Z M 74.21875 21.875 C 73.820312 21.875 73.546875 22.15625 73.242188 22.460938 L 66.601562 29.101562 C 65.988281 29.714844 65.988281 30.636719 66.601562 31.25 L 68.75 33.398438 C 69.363281 34.011719 70.285156 34.011719 70.898438 33.398438 L 77.539062 26.757812 C 78.152344 26.144531 78.152344 25.222656 77.539062 24.609375 L 75.390625 22.460938 C 75.085938 22.15625 74.617188 21.875 74.21875 21.875 Z M 50 31.25 C 39.644531 31.25 31.25 39.644531 31.25 50 C 31.25 60.355469 39.644531 68.75 50 68.75 C 60.355469 68.75 68.75 60.355469 68.75 50 C 68.75 39.644531 60.355469 31.25 50 31.25 Z M 50 37.5 C 56.902344 37.5 62.5 43.097656 62.5 50 C 62.5 56.902344 56.902344 62.5 50 62.5 C 43.097656 62.5 37.5 56.902344 37.5 50 C 37.5 43.097656 43.097656 37.5 50 37.5 Z M 14.0625 46.875 C 13.195312 46.875 12.5 47.570312 12.5 48.4375 L 12.5 51.5625 C 12.5 52.429688 13.195312 53.125 14.0625 53.125 L 23.4375 53.125 C 24.304688 53.125 25 52.429688 25 51.5625 L 25 48.4375 C 25 47.570312 24.304688 46.875 23.4375 46.875 Z M 76.5625 46.875 C 75.695312 46.875 75 47.570312 75 48.4375 L 75 51.5625 C 75 52.429688 75.695312 53.125 76.5625 53.125 L 85.9375 53.125 C 86.804688 53.125 87.5 52.429688 87.5 51.5625 L 87.5 48.4375 C 87.5 47.570312 86.804688 46.875 85.9375 46.875 Z M 30.078125 66.210938 C 29.679688 66.210938 29.40625 66.296875 29.101562 66.601562 L 22.460938 73.242188 C 21.847656 73.855469 21.847656 74.777344 22.460938 75.390625 L 24.609375 77.539062 C 25.222656 78.152344 26.144531 78.152344 26.757812 77.539062 L 33.398438 70.898438 C 34.011719 70.285156 34.011719 69.363281 33.398438 68.75 L 31.25 66.601562 C 30.945312 66.296875 30.476562 66.210938 30.078125 66.210938 Z M 69.921875 66.210938 C 69.523438 66.210938 69.054688 66.296875 68.75 66.601562 L 66.601562 68.75 C 65.988281 69.363281 65.988281 70.285156 66.601562 70.898438 L 73.242188 77.539062 C 73.855469 78.152344 74.777344 78.152344 75.390625 77.539062 L 77.539062 75.390625 C 78.152344 74.777344 78.152344 73.855469 77.539062 73.242188 L 70.898438 66.601562 C 70.59375 66.296875 70.320312 66.210938 69.921875 66.210938 Z M 48.4375 75 C 47.570312 75 46.875 75.695312 46.875 76.5625 L 46.875 85.9375 C 46.875 86.804688 47.570312 87.5 48.4375 87.5 L 51.5625 87.5 C 52.429688 87.5 53.125 86.804688 53.125 85.9375 L 53.125 76.5625 C 53.125 75.695312 52.429688 75 51.5625 75 Z M 48.4375 75 "/>
</g>
</svg>
