<?xml version="1.0" encoding="UTF-8"?>
<svg xmlns="http://www.w3.org/2000/svg" xmlns:xlink="http://www.w3.org/1999/xlink" width="100pt" height="100pt" viewBox="0 0 100 100" version="1.1">
<defs>
<linearGradient id="linear0" gradientUnits="userSpaceOnUse" x1="45.52272" y1="0.940878" x2="45.52272" y2="34.003155" gradientTransform="matrix(1.973794,0,0,2.703386,-159.839195,-11.83595)">
<stop offset="0" style="stop-color:rgb(100%,100%,100%);stop-opacity:1;"/>
<stop offset="1" style="stop-color:rgb(90.196078%,90.196078%,90.196078%);stop-opacity:1;"/>
</linearGradient>
</defs>
<g id="surface1">
<path style=" stroke:none;fill-rule:nonzero;fill:rgb(0%,0%,0%);fill-opacity:0.501961;" d="M 13.636719 27.273438 C 11.117188 27.273438 9.089844 29.300781 9.089844 31.816406 L 9.089844 77.273438 C 9.089844 79.789062 11.117188 81.816406 13.636719 81.816406 L 86.363281 81.816406 C 88.882812 81.816406 90.910156 79.789062 90.910156 77.273438 L 90.910156 31.816406 C 90.910156 29.300781 88.882812 27.273438 86.363281 27.273438 Z M 17.472656 32.527344 L 48.578125 63.636719 L 51.277344 63.636719 L 82.527344 32.527344 L 85.652344 35.652344 L 67.046875 54.546875 L 81.109375 68.890625 L 77.984375 72.015625 L 63.636719 57.671875 L 53.265625 68.183594 L 46.734375 68.183594 L 36.363281 57.671875 L 22.015625 72.160156 L 18.890625 68.890625 L 33.097656 54.546875 L 14.347656 35.652344 Z M 17.472656 32.527344 "/>
<path style=" stroke:none;fill-rule:nonzero;fill:url(#linear0);" d="M 13.636719 22.726562 C 11.117188 22.726562 9.089844 24.753906 9.089844 27.273438 L 9.089844 72.726562 C 9.089844 75.246094 11.117188 77.273438 13.636719 77.273438 L 86.363281 77.273438 C 88.882812 77.273438 90.910156 75.246094 90.910156 72.726562 L 90.910156 27.273438 C 90.910156 24.753906 88.882812 22.726562 86.363281 22.726562 Z M 17.472656 27.984375 L 48.578125 59.089844 L 51.277344 59.089844 L 82.527344 27.984375 L 85.652344 31.109375 L 67.046875 50 L 81.109375 64.347656 L 77.984375 67.472656 L 63.636719 53.125 L 53.265625 63.636719 L 46.734375 63.636719 L 36.363281 53.125 L 22.015625 67.613281 L 18.890625 64.347656 L 33.097656 50 L 14.347656 31.109375 Z M 17.472656 27.984375 "/>
</g>
</svg>
